Wrong Turn at Tahoe (2009)(DVDRIP)multisubs 11x


Source: Retail dvd9
Subs: Dansk, Deutsch, English, Spanish, French, Chin, Italiano, Dutch, Norsk, Suomi, Svenska,English (FTHI)
Subs external: idx, sub file

PLOT

A small-time crime boss kills a drug dealer without realizing that the drug dealer works for the biggest crime boss in the country.

General

Format                           : DivX
Format/Info                      : Hack of AVI
File size                        : 1.46 GiB
Duration                         : 1h 27mn
Overall bit rate                 : 2 397 Kbps

Video
ID                               : 0
Format                           : MPEG-4 Visual
Format profile                   : AdvancedSimple@L5
Format settings, BVOP            : Yes
Format settings, QPel            : No
Format settings, GMC             : No warppoints
Format settings, Matrix          : Custom
Muxing mode                      : Packed bitstream
Codec ID                         : DX50
Codec ID/Hint                    : DivX 5
Duration                         : 1h 27mn
Bit rate                         : 1 939 Kbps
Width                            : 720 pixels
Height                           : 304 pixels
Display aspect ratio             : 2.35:1
Frame rate                       : 25.000 fps
Resolution                       : 24 bits
Colorimetry                      : 4:2:0
Scan type                        : Progressive
Bits/(Pixel*Frame)               : 0.354
Stream size                      : 1.18 GiB (81%)
Title                            : Video 
Writing library                  : XviD 1.2.1 (UTC 2008-12-04)

Audio
ID                               : 1
Format                           : AC-3
Format/Info                      : Audio Coding 3
Codec ID                         : 2000
Duration                         : 1h 27mn
Bit rate mode                    : Constant
Bit rate                         : 448 Kbps
Channel(s)                       : 6 channels
Channel positions                : Front: L C R, Surround: L R, LFE
Sampling rate                    : 48.0 KHz
Stream size                      : 279 MiB (19%)
Alignment                        : Split accross interleaves
Interleave, duration             : 40 ms (1.00 video frame)
Interleave, preload duration     : 500 ms
Title                            : Audio 


Verenigde Staten
Thriller / Misdaad
90 minuten

geregisseerd door Franck Khalfoun
met Harvey Keitel, Cuba Gooding Jr. en Miguel Ferrer

Joshua (Cuba Gooding Jr.), die geld int voor een meedogenloze maffiabaas (Miguel Ferrer), leeft in een wereld vol met bruut geweld en mooie vrouwen. 
Maar waneer hij zich in het midden van een machtsstrijd bevindt met de meest dominante drugsbaron in het milieu (Harvey Keitel), beseft hij dat elke stap de verkeerde kan zijn.




MM:   http://www.moviemeter.nl/film/61707

IMDB:    http://www.imdb.com/title/tt1393000/